<?xml version="1.0" encoding="UTF-8"?><svg id="Layer_2" xmlns="http://www.w3.org/2000/svg" viewBox="0 0 225.48 95.13"><defs><style>.cls-1{fill:#fff;}</style></defs><g id="Layer_1-2"><path class="cls-1" d="M55.12,58.29l-26.39-26.54c-.19-.19-.37-.38-.54-.59-1.23-1.55-1.85-3.43-1.85-5.31,0-2.24.88-4.49,2.63-6.17,3.38-3.24,8.78-3.06,12.09.25l9.98,10.03,2.1-2.1c1.68-1.68,2.06-4.26.94-6.36L42.69,0c-1.63,1.75-2.86,6.24-.92,9.38-6.5-2.67-14.23-1.47-19.5,3.76-2.15,2.14-3.69,4.73-4.54,7.55L5.04,7.93C1.97,12.73.13,19.08,0,25.45c0,9.85,3.62,18.25,10.6,25.2l25.75,25.88c1.83,1.82,4.8,1.82,6.62-.02h0c1.82-1.83,1.78-4.78-.02-6.62l-25.75-25.88c-5.16-5.13-7.68-10.93-7.75-18.21l39.03,39.09c4.75,4.78,4.73,12.54-.03,17.3-4.76,4.76-12.52,4.78-17.3.03l-9.99-10.13-4.68-4.79c-2.94-3.01-8.05-.93-8.05,3.28,0,7.31-.01,14.68-.01,14.68,3.99-.05,6.76-2.81,7.14-5.55l9,9.15c4.21,4.18,9.72,6.26,15.23,6.26,5.54,0,11.08-2.11,15.29-6.32,8.4-8.4,8.42-22.09.05-30.52Z"/><path class="cls-1" d="M90.75,21.87l-4.1,3.62c-1.44-2-2.9-3-4.39-3-.73,0-1.32.2-1.78.58-.46.39-.69.83-.69,1.31s.16.95.49,1.38c.45.58,1.8,1.82,4.06,3.73,2.11,1.77,3.39,2.88,3.84,3.34,1.12,1.13,1.92,2.22,2.38,3.25.47,1.03.7,2.16.7,3.39,0,2.38-.82,4.35-2.47,5.91-1.65,1.55-3.8,2.33-6.45,2.33-2.07,0-3.87-.51-5.41-1.52-1.54-1.01-2.85-2.61-3.95-4.78l4.65-2.81c1.4,2.57,3.01,3.85,4.83,3.85.95,0,1.75-.28,2.39-.83s.97-1.19.97-1.92c0-.66-.24-1.32-.73-1.98-.49-.66-1.56-1.67-3.23-3.02-3.17-2.58-5.21-4.57-6.14-5.98s-1.39-2.8-1.39-4.2c0-2.01.77-3.74,2.3-5.19,1.54-1.44,3.43-2.16,5.69-2.16,1.45,0,2.83.34,4.14,1.01,1.31.67,2.73,1.9,4.26,3.67Z"/><path class="cls-1" d="M105.09,46.98h-5.75l-7.65-21.24h6.15l3.12,9.83c.27.81.53,1.66.77,2.55.24.89.43,1.59.57,2.1.13-.54.32-1.24.57-2.1.24-.86.5-1.71.77-2.55l3.12-9.83h5.99l-7.65,21.24Z"/><path class="cls-1" d="M126.33,46.98v-1.42c-.51.54-1.19.98-2.02,1.34-.84.35-1.75.53-2.75.53s-1.97-.16-2.91-.47c-.94-.31-1.79-.77-2.53-1.4-.74-.62-1.34-1.4-1.8-2.35-.46-.94-.69-2.06-.69-3.36,0-1.16.22-2.18.67-3.08.44-.89,1.06-1.62,1.84-2.21.78-.58,1.69-1.02,2.73-1.32,1.04-.3,2.16-.44,3.38-.44.97,0,1.78.09,2.43.26s1.2.37,1.66.59v-1.05c0-.75-.25-1.4-.75-1.92-.5-.53-1.26-.79-2.29-.79-.65,0-1.22.03-1.72.08-.5.05-.97.14-1.42.24-.44.11-.88.25-1.31.43-.43.18-.89.4-1.38.67l-2.14-3.88c.62-.35,1.22-.66,1.8-.93.58-.27,1.19-.49,1.82-.67.63-.18,1.3-.31,2-.4.7-.09,1.48-.14,2.35-.14,1.29,0,2.47.16,3.52.49s1.96.8,2.71,1.44c.75.63,1.34,1.42,1.76,2.35.42.93.63,1.99.63,3.18v14.24h-5.58ZM126.33,38.08c-.49-.3-1.01-.52-1.56-.67-.55-.15-1.33-.22-2.33-.22-1.05,0-1.86.23-2.41.69-.55.46-.83,1.12-.83,1.98,0,.76.24,1.42.73,1.98s1.32.85,2.51.85c.92,0,1.72-.2,2.41-.59.69-.39,1.18-.84,1.48-1.36v-2.67Z"/><path class="cls-1" d="M136.53,46.98v-29.5s5.58,0,5.58,0v29.5h-5.58Z"/><path class="cls-1" d="M165.26,36.62c0,1.59-.18,3.05-.55,4.37-.36,1.32-.9,2.46-1.6,3.42-.7.96-1.56,1.7-2.59,2.23s-2.2.79-3.52.79c-.94,0-1.8-.16-2.57-.49-.77-.32-1.41-.71-1.92-1.17v1.21h-5.58v-29.5s5.58,0,5.58,0v9.59c.54-.46,1.17-.87,1.88-1.23.71-.36,1.58-.55,2.61-.55,1.13,0,2.2.22,3.2.65,1,.43,1.87,1.11,2.63,2.04s1.35,2.11,1.78,3.54c.43,1.43.65,3.13.65,5.1ZM159.6,36.75c0-2.19-.33-3.76-.99-4.73-.66-.97-1.54-1.46-2.65-1.46-.86,0-1.55.16-2.06.49-.51.32-.97.76-1.38,1.29v8.01c.89,1.21,2.14,1.82,3.76,1.82,2.21,0,3.32-1.81,3.32-5.42Z"/><path class="cls-1" d="M181.04,46.98v-1.42c-.51.54-1.19.98-2.02,1.34-.84.35-1.75.53-2.75.53s-1.97-.16-2.91-.47c-.94-.31-1.79-.77-2.53-1.4-.74-.62-1.34-1.4-1.8-2.35-.46-.94-.69-2.06-.69-3.36,0-1.16.22-2.18.67-3.08.44-.89,1.06-1.62,1.84-2.21.78-.58,1.69-1.02,2.73-1.32,1.04-.3,2.16-.44,3.38-.44.97,0,1.78.09,2.43.26s1.2.37,1.66.59v-1.05c0-.75-.25-1.4-.75-1.92-.5-.53-1.26-.79-2.29-.79-.65,0-1.22.03-1.72.08-.5.05-.97.14-1.42.24-.44.11-.88.25-1.32.43-.43.18-.89.4-1.38.67l-2.14-3.88c.62-.35,1.22-.66,1.8-.93.58-.27,1.19-.49,1.82-.67s1.3-.31,2-.4c.7-.09,1.48-.14,2.35-.14,1.29,0,2.47.16,3.52.49,1.05.32,1.96.8,2.71,1.44.76.63,1.34,1.42,1.76,2.35.42.93.63,1.99.63,3.18v14.24h-5.58ZM181.04,38.08c-.49-.3-1.01-.52-1.56-.67-.55-.15-1.33-.22-2.33-.22-1.05,0-1.86.23-2.41.69s-.83,1.12-.83,1.98c0,.76.24,1.42.73,1.98.49.57,1.32.85,2.51.85.92,0,1.72-.2,2.41-.59.69-.39,1.18-.84,1.48-1.36v-2.67Z"/><path class="cls-1" d="M203.46,32.26c-.46-.4-.96-.73-1.5-.99-.54-.26-1.12-.38-1.74-.38-.54,0-1.03.07-1.48.2-.44.14-.82.38-1.13.73-.31.35-.55.82-.73,1.42-.18.59-.26,1.35-.26,2.27v11.49h-5.58v-21.24h5.58v1.42c.49-.51,1.09-.95,1.8-1.31.71-.36,1.57-.55,2.57-.55.92,0,1.71.16,2.37.47.66.31,1.18.65,1.56,1.03l-1.46,5.46Z"/><path class="cls-1" d="M219.4,46.98v-1.34c-.54.46-1.17.87-1.88,1.23-.72.36-1.58.55-2.61.55-1.13,0-2.2-.22-3.2-.65-1-.43-1.88-1.11-2.63-2.04-.76-.93-1.35-2.1-1.78-3.52-.43-1.42-.65-3.12-.65-5.12,0-1.59.18-3.05.55-4.37.36-1.32.9-2.46,1.6-3.42.7-.96,1.56-1.7,2.59-2.23s2.2-.79,3.52-.79c.94,0,1.8.16,2.57.49.77.32,1.41.72,1.92,1.17v-9.47h5.58v29.5h-5.58ZM219.4,32.38c-.89-1.21-2.14-1.82-3.76-1.82-2.21,0-3.32,1.81-3.32,5.42,0,2.18.33,3.76.99,4.73s1.54,1.46,2.65,1.46c.86,0,1.55-.16,2.06-.49.51-.32.97-.76,1.38-1.29v-8.01Z"/><path class="cls-1" d="M90.75,60.53l-4.1,3.62c-1.44-2-2.9-3-4.39-3-.73,0-1.32.2-1.78.58-.46.39-.69.83-.69,1.31s.16.95.49,1.38c.45.58,1.8,1.82,4.06,3.73,2.11,1.77,3.39,2.88,3.84,3.34,1.12,1.13,1.92,2.22,2.38,3.25.47,1.03.7,2.16.7,3.39,0,2.38-.82,4.35-2.47,5.91-1.65,1.55-3.8,2.33-6.45,2.33-2.07,0-3.87-.51-5.41-1.52-1.54-1.01-2.85-2.61-3.95-4.78l4.65-2.81c1.4,2.57,3.01,3.85,4.83,3.85.95,0,1.75-.28,2.39-.83s.97-1.19.97-1.92c0-.66-.24-1.32-.73-1.98-.49-.66-1.56-1.67-3.23-3.02-3.17-2.58-5.21-4.57-6.14-5.98-.92-1.4-1.39-2.8-1.39-4.2,0-2.01.77-3.74,2.3-5.19,1.54-1.44,3.43-2.16,5.69-2.16,1.45,0,2.83.34,4.14,1.01,1.31.67,2.73,1.9,4.26,3.67Z"/><path class="cls-1" d="M112.13,75.04c0,.4,0,.75-.02,1.03-.01.28-.03.53-.06.75h-12.75c.05.73.22,1.35.49,1.86.27.51.61.92,1.01,1.23s.86.54,1.36.69c.5.15,1,.22,1.52.22.78,0,1.48-.13,2.1-.4.62-.27,1.13-.63,1.54-1.09l3.97,3.32c-.86,1.11-1.99,1.96-3.38,2.55-1.39.59-2.8.89-4.23.89-1.54,0-2.92-.26-4.14-.79-1.22-.53-2.26-1.27-3.12-2.23-.86-.96-1.52-2.12-1.99-3.48-.47-1.36-.7-2.88-.7-4.55s.24-3.11.73-4.47c.49-1.36,1.15-2.54,2-3.52.85-.98,1.85-1.75,2.99-2.29,1.15-.54,2.39-.81,3.74-.81s2.66.29,3.78.87c1.12.58,2.06,1.38,2.81,2.39.75,1.01,1.34,2.19,1.74,3.54s.61,2.78.61,4.29ZM106.71,72.61c-.05-.49-.16-.95-.33-1.4-.16-.44-.4-.85-.71-1.21-.31-.36-.7-.65-1.16-.87-.46-.22-1-.32-1.63-.32-1.03,0-1.84.36-2.44,1.09s-.95,1.63-1.06,2.71h7.32Z"/><path class="cls-1" d="M131.95,83.28c-.58.56-1.21,1.06-1.9,1.49-.69.43-1.46.76-2.31.98-.85.23-1.8.34-2.85.34-1.38,0-2.67-.27-3.88-.81-1.21-.54-2.27-1.29-3.18-2.27-.9-.97-1.61-2.14-2.12-3.5-.51-1.36-.77-2.85-.77-4.47s.26-3.11.77-4.47c.51-1.36,1.22-2.54,2.12-3.52.9-.98,1.98-1.75,3.22-2.29,1.24-.54,2.6-.81,4.09-.81,2.02,0,3.71.44,5.06,1.31,1.35.87,2.47,1.99,3.36,3.35l-3.68,3.72c-.62-.89-1.3-1.62-2.04-2.19-.74-.57-1.68-.85-2.81-.85-1.35,0-2.42.52-3.22,1.55-.8,1.03-1.19,2.43-1.19,4.2s.4,3.09,1.19,4.14c.8,1.05,1.87,1.57,3.22,1.57,1.11,0,2.04-.24,2.79-.71.75-.47,1.5-1.14,2.23-2l3.56,3.35c-.51.7-1.06,1.33-1.64,1.89Z"/><path class="cls-1" d="M149.37,85.64v-1.42c-.49.51-1.15.95-2,1.32-.85.36-1.84.55-2.97.55-2.72,0-4.71-.87-5.97-2.61-1.25-1.74-1.88-4.11-1.88-7.1v-11.98h5.58v11.49c0,.94.08,1.73.24,2.37.16.63.39,1.14.69,1.52.3.38.67.65,1.13.81.46.16.97.24,1.54.24,1.16,0,2.06-.34,2.69-1.03.63-.69.95-1.95.95-3.78v-11.61h5.58v21.24h-5.58Z"/><path class="cls-1" d="M171.99,70.91c-.46-.4-.96-.73-1.5-.99-.54-.26-1.12-.38-1.74-.38-.54,0-1.03.07-1.48.2-.44.14-.82.38-1.13.73-.31.35-.55.82-.73,1.42-.18.59-.26,1.35-.26,2.27v11.49h-5.58v-21.24h5.58v1.42c.49-.51,1.09-.95,1.8-1.31.71-.36,1.57-.55,2.57-.55.92,0,1.71.16,2.37.47.66.31,1.18.65,1.56,1.03l-1.46,5.46Z"/><path class="cls-1" d="M183.08,59.46c0,.86-.32,1.61-.95,2.25-.63.63-1.38.95-2.25.95s-1.61-.32-2.25-.95c-.63-.63-.95-1.38-.95-2.25s.32-1.61.95-2.25c.63-.63,1.38-.95,2.25-.95s1.61.32,2.25.95c.63.63.95,1.38.95,2.25ZM177.09,85.64v-21.24h5.58v21.24h-5.58Z"/><path class="cls-1" d="M202.17,83.58c-1.01.9-3.1,1.9-3.88,2.15-.78.24-1.61.36-2.47.36s-1.65-.16-2.35-.47c-.7-.31-1.29-.75-1.78-1.32-.49-.57-.86-1.24-1.13-2.02-.27-.78-.4-1.65-.4-2.59v-10.04h-3.56v-5.26h3.56v-8.25s5.58,0,5.58,0v8.25h5.1v5.26h-5.1v8.54c0,1.03.17,1.71.53,2.04.35.34.86.51,1.54.51.51,0,1.59-.3,2.29-.9l2.07,3.73Z"/><path class="cls-1" d="M214.56,93.13h-5.5l2.83-7.49-8.25-21.24h6.15l3.48,10.24c.3.81.57,1.66.81,2.55.24.89.43,1.59.57,2.1.13-.54.32-1.24.57-2.1.24-.86.51-1.71.81-2.55l3.48-10.24h5.99l-10.93,28.73Z"/></g></svg>